<mxfile host="app.diagrams.net" modified="2023-10-10T04:03:42.115Z" agent="Mozilla/5.0 (Linux; Android 10; K) AppleWebKit/537.36 (KHTML, like Gecko) Chrome/117.0.0.0 Mobile Safari/537.36" version="22.0.4" etag="0RgH3eFNGBt0e4Kol40I" type="github">
  <diagram name="StrÃ¡nka-1" id="UktwlKYulM7CAYBNVFxi">
    <mxGraphModel>
      <root>
        <mxCell id="0" />
        <mxCell id="1" parent="0" />
      </root>
    </mxGraphModel>
  </diagram>
</mxfile>
